# 3ds Max Wavefront OBJ Exporter v0.97b - (c)2007 guruware
# File Created: 11.08.2019 15:04:12

mtllib flag.mtl

#
# object Flag
#

v  15.0000 0.0000 25.9808
v  -15.0000 0.0000 25.9808
v  -30.0000 0.0000 0.0000
v  -15.0000 0.0000 -25.9808
v  15.0000 0.0000 -25.9808
v  30.0000 0.0000 -0.0000
v  30.0000 6999.9995 -0.0000
v  15.0000 6999.9995 -25.9808
v  -15.0000 6999.9995 -25.9808
v  -30.0000 6999.9995 0.0000
v  -15.0000 6999.9995 25.9808
v  15.0000 6999.9995 25.9808
v  15.0000 5050.0000 -25.9808
v  30.0000 5050.0000 -0.0000
v  30.0000 2525.0000 -0.0000
v  15.0000 2525.0000 -25.9808
v  -15.0000 5050.0000 -25.9808
v  -15.0000 2525.0000 -25.9808
v  -30.0000 5050.0000 0.0000
v  -30.0000 2525.0000 0.0000
v  -15.0000 5050.0000 25.9808
v  -15.0000 2525.0000 25.9808
v  15.0000 5050.0000 25.9808
v  15.0000 2525.0000 25.9808
v  15.0000 6850.0034 -25.9808
v  30.0000 6850.0034 -0.0000
v  -15.0000 6850.0034 -25.9808
v  -30.0000 6850.0034 0.0000
v  -15.0000 6850.0034 25.9808
v  15.0000 6850.0034 25.9808
v  20.0000 5050.0000 -34.6410
v  20.0000 6850.0034 -34.6410
v  40.0000 6850.0034 -0.0000
v  40.0000 5050.0000 -0.0000
v  -20.0000 5050.0000 -34.6410
v  -20.0000 6850.0034 -34.6410
v  -37.5000 5050.0000 -4.3301
v  -37.5000 6850.0034 -4.3301
v  -20.0000 5050.0000 34.6410
v  -20.0000 6850.0034 34.6410
v  -37.5000 6850.0034 4.3301
v  -37.5000 5050.0000 4.3301
v  20.0000 5050.0000 34.6410
v  20.0000 6850.0034 34.6410
v  -7037.5000 5950.0005 4.3301
v  -7037.5000 5950.0005 -4.3301
# 46 vertices

vn 0.3962 -0.6100 0.6862
vn -0.3962 -0.6100 0.6862
vn -0.7924 -0.6100 0.0000
vn -0.3962 -0.6100 -0.6862
vn 0.3962 -0.6100 -0.6862
vn 0.7924 -0.6100 0.0000
vn 0.7924 0.6100 0.0000
vn 0.3962 0.6100 -0.6862
vn -0.3962 0.6100 -0.6862
vn -0.7924 0.6100 0.0000
vn -0.3962 0.6100 0.6862
vn 0.3962 0.6100 0.6862
vn 0.2724 -0.8386 -0.4717
vn 0.5447 -0.8386 0.0000
vn 1.0000 0.0000 0.0000
vn 0.5000 0.0000 -0.8660
vn -0.2724 -0.8386 -0.4717
vn -0.5000 0.0000 -0.8660
vn -0.5447 -0.8386 0.0000
vn -1.0000 0.0000 0.0000
vn -0.2724 -0.8386 0.4717
vn -0.5000 0.0000 0.8660
vn 0.2724 -0.8386 0.4717
vn 0.5000 0.0000 0.8660
vn 0.2724 0.8386 -0.4717
vn 0.5447 0.8386 0.0000
vn -0.2724 0.8386 -0.4717
vn -0.5447 0.8386 0.0000
vn -0.2724 0.8386 0.4717
vn 0.2724 0.8386 0.4717
vn -0.3131 -0.8379 -0.4471
vn -0.3131 0.8379 -0.4471
vn -0.3131 0.8379 0.4471
vn -0.3131 -0.8379 0.4471
vn -0.8429 -0.0007 0.5381
vn -0.8429 -0.0007 -0.5381
# 36 vertex normals

vt 0.0156 0.9771 0.0000
vt 0.0191 0.9791 0.0000
vt 0.0191 0.9831 0.0000
vt 0.0156 0.9851 0.0000
vt 0.0121 0.9831 0.0000
vt 0.0121 0.9791 0.0000
vt 0.7507 0.9791 0.0000
vt 0.7507 0.9831 0.0000
vt 0.7472 0.9851 0.0000
vt 0.7437 0.9831 0.0000
vt 0.7437 0.9791 0.0000
vt 0.7472 0.9771 0.0000
vt 0.6955 0.9671 0.0000
vt 0.6955 0.9711 0.0000
vt 0.3573 0.9711 0.0000
vt 0.3573 0.9671 0.0000
vt 0.6955 0.9630 0.0000
vt 0.3573 0.9630 0.0000
vt 0.6955 0.9590 0.0000
vt 0.3573 0.9590 0.0000
vt 0.6955 0.9791 0.0000
vt 0.6955 0.9831 0.0000
vt 0.3573 0.9831 0.0000
vt 0.3573 0.9791 0.0000
vt 0.6955 0.9751 0.0000
vt 0.3573 0.9751 0.0000
vt 0.7236 0.9671 0.0000
vt 0.7437 0.9671 0.0000
vt 0.7437 0.9711 0.0000
vt 0.7236 0.9711 0.0000
vt 0.7236 0.9630 0.0000
vt 0.7437 0.9630 0.0000
vt 0.7236 0.9590 0.0000
vt 0.7437 0.9590 0.0000
vt 0.7236 0.9791 0.0000
vt 0.7236 0.9831 0.0000
vt 0.7236 0.9751 0.0000
vt 0.7437 0.9751 0.0000
vt 0.9608 0.8984 0.0000
vt 0.9608 0.6573 0.0000
vt 0.9661 0.6573 0.0000
vt 0.9661 0.8984 0.0000
vt 0.9554 0.8984 0.0000
vt 0.9554 0.6573 0.0000
vt 0.9507 0.8984 0.0000
vt 0.9507 0.6573 0.0000
vt 0.9768 0.8984 0.0000
vt 0.9768 0.6573 0.0000
vt 0.9815 0.6573 0.0000
vt 0.9815 0.8984 0.0000
vt 0.9715 0.8984 0.0000
vt 0.9715 0.6573 0.0000
vt 0.0224 0.9136 0.0000
vt 0.0204 0.9170 0.0000
vt 0.0191 0.9170 0.0000
vt 0.0218 0.9124 0.0000
vt 0.0224 0.9205 0.0000
vt 0.0218 0.9217 0.0000
vt 0.0264 0.9205 0.0000
vt 0.0271 0.9217 0.0000
vt 0.0285 0.9170 0.0000
vt 0.0295 0.9176 0.0000
vt 0.0295 0.9165 0.0000
vt 0.0264 0.9136 0.0000
vt 0.0271 0.9124 0.0000
vt 0.0204 0.9328 0.0000
vt 0.0224 0.9362 0.0000
vt 0.0218 0.9374 0.0000
vt 0.0191 0.9328 0.0000
vt 0.0264 0.9362 0.0000
vt 0.0271 0.9374 0.0000
vt 0.0285 0.9328 0.0000
vt 0.0295 0.9333 0.0000
vt 0.0295 0.9322 0.0000
vt 0.0264 0.9293 0.0000
vt 0.0224 0.9293 0.0000
vt 0.0218 0.9281 0.0000
vt 0.0271 0.9281 0.0000
vt 0.9671 0.9322 0.0000
vt 0.9671 0.9333 0.0000
vt 0.0131 0.7495 0.0000
vt 0.0131 0.5084 0.0000
vt 0.9507 0.6289 0.0000
vt 0.9671 0.9165 0.0000
vt 0.9671 0.9176 0.0000
vt 0.0131 0.7779 0.0000
vt 0.0191 0.9711 0.0000
vt 0.0191 0.9671 0.0000
vt 0.0191 0.9630 0.0000
vt 0.0191 0.9590 0.0000
vt 0.0191 0.9751 0.0000
# 91 texture coords

o Flag
g Flag
usemtl Flag
s 2
f 1/1/1 2/2/2 3/3/3 4/4/4 5/5/5 6/6/6 
s 1
f 7/7/7 8/8/8 9/9/9 10/10/10 11/11/11 12/12/12 
f 13/13/13 14/14/14 15/15/15 16/16/16 
f 17/17/17 13/13/13 16/16/16 18/18/18 
f 19/19/19 17/17/17 18/18/18 20/20/20 
f 21/21/21 19/22/19 20/23/20 22/24/22 
f 23/25/23 21/21/21 22/24/22 24/26/24 
f 14/14/14 23/25/23 24/26/24 15/15/15 
s 8
f 25/27/25 8/28/8 7/29/7 26/30/26 
f 27/31/27 9/32/9 8/28/8 25/27/25 
f 28/33/28 10/34/10 9/32/9 27/31/27 
f 29/35/29 11/11/11 10/10/10 28/36/28 
f 30/37/30 12/38/12 11/11/11 29/35/29 
f 26/30/26 7/29/7 12/38/12 30/37/30 
f 31/39/5 32/40/8 33/41/7 34/42/6 
f 35/43/4 36/44/9 32/40/8 31/39/5 
f 37/45/31 38/46/32 36/44/9 35/43/4 
f 39/47/2 40/48/11 41/49/33 42/50/34 
f 43/51/1 44/52/12 40/48/11 39/47/2 
f 34/42/6 33/41/7 44/52/12 43/51/1 
s off
f 25/53/25 26/54/26 33/55/7 32/56/8 
f 26/54/26 30/57/30 44/58/12 33/55/7 
f 30/57/30 29/59/29 40/60/11 44/58/12 
f 29/59/29 28/61/28 41/62/33 40/60/11 
f 28/61/28 38/63/32 41/62/33 
f 27/64/27 25/53/25 32/56/8 36/65/9 
f 14/66/14 13/67/13 31/68/5 34/69/6 
f 13/67/13 17/70/17 35/71/4 31/68/5 
f 17/70/17 19/72/19 37/73/31 35/71/4 
f 19/72/19 42/74/34 37/73/31 
f 21/75/21 23/76/23 43/77/1 39/78/2 
f 23/76/23 14/66/14 34/69/6 43/77/1 
f 19/72/19 21/75/21 39/78/2 42/74/34 
f 28/61/28 27/64/27 36/65/9 38/63/32 
f 37/73/31 42/74/34 45/79/35 46/80/36 
f 42/81/34 41/82/33 45/83/35 
f 41/62/33 38/63/32 46/84/36 45/85/35 
f 46/86/36 38/46/32 37/45/31 
s 1
f 15/15/15 6/87/6 5/88/5 16/16/16 
f 16/16/16 5/88/5 4/89/4 18/18/18 
f 18/18/18 4/89/4 3/90/3 20/20/20 
f 20/23/20 3/3/3 2/2/2 22/24/22 
f 22/24/22 2/2/2 1/91/1 24/26/24 
f 24/26/24 1/91/1 6/87/6 15/15/15 
# 40 polygons - 4 triangles

